<svg width="275" height="275" viewBox="0 0 275 275" fill="none" xmlns="http://www.w3.org/2000/svg">
<g clip-path="url(#clip0)">
<g filter="url(#filter0_d)">
<path d="M238.413 2.83594C236.78 1.03125 234.477 0 232.037 0H42.9741C40.5507 0 38.2304 1.03125 36.5976 2.83594C34.9819 4.62344 34.1741 7.02969 34.4148 9.45312L60.196 267.266C60.6429 271.666 64.3382 275 68.7554 275H206.255C210.673 275 214.368 271.666 214.798 267.266L240.579 9.45312C240.837 7.02969 240.046 4.62344 238.413 2.83594Z" fill="#ffff"/>
<path d="M238.044 3.17316L238.042 3.1714C236.504 1.47068 234.335 0.5 232.037 0.5H42.9741C40.6926 0.5 38.5069 1.47101 36.9685 3.17121L238.044 3.17316ZM238.044 3.17316C239.58 4.85467 240.324 7.1188 240.082 9.40023L240.081 9.40337L214.3 267.216L214.3 267.217M238.044 3.17316L214.3 267.217M214.3 267.217C213.895 271.36 210.417 274.5 206.255 274.5H68.7554C64.5948 274.5 61.1148 271.36 60.6935 267.216L214.3 267.217ZM34.9123 9.40337C34.6858 7.12194 35.4464 4.85529 36.9683 3.17139L34.9123 9.40337ZM34.9123 9.40337C34.9123 9.40346 34.9123 9.40364 34.9123 9.40372L60.6934 267.215L34.9123 9.40337Z" stroke="black"/>
</g>
<path d="M215.537 87.6562L198.521 257.812H76.4897L57.4116 67.5469C78.896 60.6719 111.552 56.0312 137.505 77.3437C162.599 97.9687 194.224 94.1875 215.537 87.6562Z" fill="#FFBA39"/>
</g>
<defs>
<filter id="filter0_d" x="30.373" y="0" width="214.254" height="283" filterUnits="userSpaceOnUse" color-interpolation-filters="sRGB">
<feFlood flood-opacity="0" result="BackgroundImageFix"/>
<feColorMatrix in="SourceAlpha" type="matrix" values="0 0 0 0 0 0 0 0 0 0 0 0 0 0 0 0 0 0 127 0"/>
<feOffset dy="4"/>
<feGaussianBlur stdDeviation="2"/>
<feColorMatrix type="matrix" values="0 0 0 0 0 0 0 0 0 0 0 0 0 0 0 0 0 0 0.25 0"/>
<feBlend mode="normal" in2="BackgroundImageFix" result="effect1_dropShadow"/>
<feBlend mode="normal" in="SourceGraphic" in2="effect1_dropShadow" result="shape"/>
</filter>
<clipPath id="clip0">
<rect width="275" height="275" fill="white"/>
</clipPath>
</defs>
</svg>
